<mxfile host="app.diagrams.net" modified="2024-04-15T12:01:38.199Z" agent="Mozilla/5.0 (X11; Ubuntu; Linux x86_64; rv:123.0) Gecko/20100101 Firefox/123.0" version="24.2.5" etag="vrFBOj050RfkW3wgHkQg" type="github">
  <diagram name="PÃ¡gina-1" id="iZwxnnHZt4MIrZn_hTQG">
    <mxGraphModel>
      <root>
        <mxCell id="0" />
        <mxCell id="1" parent="0" />
      </root>
    </mxGraphModel>
  </diagram>
</mxfile>
